<svg width="300" height="335" viewBox="0 0 300 335" fill="none" xmlns="http://www.w3.org/2000/svg">
<path fill-rule="evenodd" clip-rule="evenodd" d="M182.778 29.4208L190.445 10.2223C201.129 11.3093 216.129 15.3617 229.665 24.3915C244.243 34.1163 257.126 49.594 261.275 73.6382L258.702 135.702C258.561 139.11 261.286 141.95 264.697 141.95H278.495C280.821 142.606 283.993 143.889 286.483 145.672C289.26 147.66 290.08 149.404 289.989 150.792C289.461 158.797 284.522 245.125 282.097 287.675C281.373 290.445 277.805 297.034 268.263 298.921L165.539 293.799L187.235 255.86C189.178 252.464 187.402 248.148 183.632 247.101L163.011 241.374L190.425 205.797C193.201 202.194 191.114 196.932 186.623 196.211L167.997 193.221L201.484 139.172H226.451C229.608 139.172 232.226 136.724 232.437 133.574L236.331 75.6005L236.352 75.285L236.334 74.9693C235.465 60.3321 222.668 33.9674 182.778 29.4208ZM188.134 0.0096488C185.438 -0.141626 183.16 1.50232 182.253 3.77234L171.497 30.7058C169.906 34.6894 172.848 38.696 176.74 38.9313C215.362 41.2661 225.545 64.7502 226.331 75.2642L222.71 129.172H199.257C197.18 129.172 195.251 130.246 194.157 132.012L156.334 193.059C154.078 196.7 156.254 201.464 160.483 202.143L178.4 205.019L151.464 239.976C148.865 243.349 150.508 248.28 154.611 249.419L176.002 255.36L153.624 294.491C151.402 298.377 154.063 303.239 158.534 303.462L268.239 308.933C268.691 308.955 269.147 308.926 269.596 308.846C284.419 306.186 290.67 295.428 291.939 289.5C292.007 289.183 292.044 288.883 292.061 288.598C294.481 246.128 299.442 159.419 299.967 151.45C300.399 144.893 296.131 140.28 292.305 137.541C288.367 134.722 283.696 132.959 280.518 132.139C280.004 132.006 279.503 131.95 279.027 131.95H268.866L271.284 73.631C271.301 73.2099 271.274 72.7925 271.206 72.389C266.617 45.036 251.851 27.1708 235.214 16.0727C218.717 5.06705 200.385 0.697028 188.134 0.0096488ZM118.054 28.8596L119.276 22.7152L113.013 22.8864C79.0934 23.8133 56.6399 36.7779 42.5243 52.9814C28.5507 69.0219 22.9894 87.9491 22.1681 100.725L22.136 101.224L22.2034 101.719L29.9793 158.932L19.461 160.055L19.2591 160.077L19.0595 160.115C4.45411 162.886 0.162391 174.488 0.00992012 180.478L5.05447e-05 180.865L0.0500879 181.25L17.9651 318.949L18.0352 319.487L18.2193 319.998C20.3904 326.024 25.1871 329.685 29.6385 331.809C34.0906 333.932 38.7689 334.811 41.8691 334.98L42.2419 335L42.6136 334.965L139.355 325.785L142.629 325.474L143.64 322.344L159.275 273.941L160.996 268.613L155.509 267.503L136.535 263.665L152.349 222.165L154.933 215.385H147.677H129.534L152.348 155.685L155.196 148.231L147.246 148.918L74.9447 155.171L69.3133 101.003C70.5904 87.0067 77.1588 77.8012 84.8615 71.8318C92.7944 65.6841 101.978 62.9564 107.809 62.3442L111.473 61.9595L112.191 58.3466L118.054 28.8596ZM40.5812 162.684L32.1813 100.88C32.9918 90.0014 37.8911 73.5239 50.0644 59.55C61.4367 46.4956 79.3704 35.372 106.993 33.2121L103.068 52.9508C95.9629 54.305 86.8466 57.6421 78.7359 63.9276C68.9865 71.483 60.7384 83.2848 59.3077 100.635L59.2694 101.099L59.3176 101.563L65.5064 161.093L66.0146 165.981L70.9104 165.557L140.158 159.569L117.6 218.6L115.007 225.385H122.27H140.421L125.09 265.616L122.989 271.128L128.771 272.298L148.039 276.195L135.136 316.14L42.0683 324.972C40.0384 324.814 36.8718 324.18 33.9441 322.783C31.0204 321.388 28.8433 319.493 27.8032 317.056L10.0244 180.405C10.2432 177.688 12.4025 171.641 20.7358 169.976L36.1575 168.33L41.2742 167.783L40.5812 162.684Z" fill="#950740"/>
</svg>
