<svg width="270" height="335" viewBox="0 0 270 335" fill="none" xmlns="http://www.w3.org/2000/svg">
<path d="M135 186.111C117 186.111 102.858 199.759 102.858 217.129C102.858 227.055 108.001 235.741 115.715 241.944V266.759C115.715 276.685 124.715 285.37 135.001 285.37C145.287 285.37 154.287 276.685 154.287 266.759V241.944C162.001 235.741 167.144 227.055 167.144 217.129C167.143 199.759 153 186.111 135 186.111ZM141.428 234.5V266.76C141.428 270.481 138.857 272.963 135 272.963C131.143 272.963 128.572 270.481 128.572 266.76V234.5C120.858 232.019 115.715 224.574 115.715 217.13C115.715 207.204 124.715 198.519 135.001 198.519C145.287 198.519 154.287 207.204 154.287 217.13C154.286 225.815 149.143 232.019 141.428 234.5Z" fill="#950740"/>
<path fill-rule="evenodd" clip-rule="evenodd" d="M227.392 93.0559L226.888 136.237C248.745 136.237 270 153.852 270 173.704V297.778C270 318.871 253.286 335 231.428 335H38.5712C16.7137 335 -0.000244141 318.871 -0.000244141 297.778V173.704C-0.000244141 152.611 21.5031 136.237 43.3606 136.237L42.8564 93.0552C42.8564 42.1845 82.4095 0 135.124 0C187.838 0 227.392 42.1858 227.392 93.0559ZM135.124 7.78496C88.8384 7.78496 51.4283 48.3892 51.4283 93.0559V136.237H68.5703V93.0552C68.5703 55.8324 96.552 25.3011 135.124 25.3011C173.696 25.3011 202.182 55.8337 202.182 93.0559L201.678 136.237H218.821V93.0559C218.821 48.3892 181.41 7.78496 135.124 7.78496ZM193.611 136.237V93.0559C193.611 62.037 167.267 33.0861 135.124 33.0861C102.982 33.0861 77.1426 62.0377 77.1426 93.0559L76.6375 136.237H193.611ZM231.428 322.593C245.571 322.593 257.143 311.426 257.143 297.778V173.704C257.143 168.407 255.4 163.484 252.44 159.442L233.932 164.474C232.839 164.771 231.879 165.43 231.21 166.344L221.435 179.688C219.545 182.267 216.881 184.176 213.83 185.134L202.507 188.692L199.51 179.151L210.833 175.594C211.85 175.274 212.738 174.638 213.368 173.778L223.142 160.434C225.15 157.693 228.029 155.715 231.308 154.824L243.111 151.615C239.601 149.873 235.628 148.889 231.428 148.889H38.5712C28.0094 148.889 18.8819 155.116 14.9366 163.954L27.3532 160.916C30.0208 160.264 32.8165 160.356 35.4353 161.183L49.0123 165.471C51.2234 166.169 53.2425 167.371 54.911 168.981L61.4064 175.249C62.3384 176.148 63.5831 176.651 64.8784 176.651H73.5826C74.473 176.651 75.3473 176.413 76.115 175.962L81.501 172.798L86.5659 181.421L81.1799 184.585C78.8766 185.938 76.2538 186.651 73.5826 186.651H64.8784C60.9926 186.651 57.2584 185.143 54.4623 182.445L47.9669 176.176C47.4108 175.64 46.7377 175.239 46.0007 175.007L32.4237 170.719C31.5507 170.443 30.6188 170.412 29.7296 170.63L12.8569 174.758V297.778C12.8569 304.384 15.5679 310.409 19.9694 314.867L33.5521 309.108C34.5734 308.675 35.4218 307.914 35.9635 306.946L41.7033 296.689C43.3219 293.796 45.853 291.521 48.9012 290.219L55.3026 287.485L50.2346 285.4C46.054 283.681 42.8719 280.168 41.5731 275.838L39.2443 268.074L48.8227 265.201L51.1514 272.965C51.5844 274.408 52.6451 275.579 54.0386 276.152L66.3283 281.207L75.8257 266.805L84.174 272.31L72.4093 290.15L71.5817 291.405L70.1992 291.996L52.8293 299.415C51.8132 299.849 50.9695 300.608 50.43 301.572L44.6902 311.829C43.0649 314.734 40.52 317.015 37.4559 318.314L30.4074 321.303C32.9751 322.139 35.7209 322.593 38.5712 322.593H210.092L215.006 318.081C217.442 315.845 217.053 311.827 214.163 310.089C204.967 304.56 204.308 291.356 213.08 285.036L222.349 278.359C225.313 276.224 225.062 271.734 221.877 269.944L201.244 258.343L206.145 249.626L226.778 261.227C236.331 266.598 237.087 280.067 228.195 286.473L218.925 293.15C216.046 295.225 216.204 299.648 219.316 301.519C226.772 306.002 228.719 315.68 224.197 322.593H231.428Z" fill="#950740"/>
</svg>
