<svg width="270" height="335" viewBox="0 0 270 335" fill="none" xmlns="http://www.w3.org/2000/svg">
<path d="M135 186.111C117 186.111 102.858 199.759 102.858 217.129C102.858 227.055 108.001 235.741 115.715 241.944V266.759C115.715 276.685 124.715 285.37 135.001 285.37C145.287 285.37 154.287 276.685 154.287 266.759V241.944C162.001 235.741 167.144 227.055 167.144 217.129C167.143 199.759 153 186.111 135 186.111ZM141.428 234.5V266.76C141.428 270.481 138.857 272.963 135 272.963C131.143 272.963 128.572 270.481 128.572 266.76V234.5C120.858 232.019 115.715 224.574 115.715 217.13C115.715 207.204 124.715 198.519 135.001 198.519C145.287 198.519 154.287 207.204 154.287 217.13C154.286 225.815 149.143 232.019 141.428 234.5Z" fill="#950740"/>
<path d="M226.888 136.237L227.392 93.0559C227.392 42.1858 187.838 0 135.124 0C82.4095 0 42.8564 42.1845 42.8564 93.0552L43.3606 136.237C21.5031 136.237 -0.000244141 152.611 -0.000244141 173.704V297.778C-0.000244141 318.871 16.7137 335 38.5712 335H231.428C253.286 335 270 318.871 270 297.778V173.704C270 153.852 248.745 136.237 226.888 136.237ZM51.4283 93.0559C51.4283 48.3892 88.8384 7.78496 135.124 7.78496C181.41 7.78496 218.821 48.3892 218.821 93.0559V136.237H201.678L202.182 93.0559C202.182 55.8337 173.696 25.3011 135.124 25.3011C96.552 25.3011 68.5703 55.8324 68.5703 93.0552V136.237H51.4283V93.0559ZM193.611 93.0559V136.237H76.6375L77.1426 93.0559C77.1426 62.0377 102.982 33.0861 135.124 33.0861C167.267 33.0861 193.611 62.037 193.611 93.0559ZM257.143 297.778C257.143 311.426 245.571 322.593 231.428 322.593H38.5712C24.428 322.593 12.8569 311.426 12.8569 297.778V173.704C12.8569 160.055 24.428 148.889 38.5712 148.889H231.428C245.571 148.889 257.143 160.055 257.143 173.704V297.778Z" fill="#950740"/>
</svg>
