<svg width="400" height="335" viewBox="0 0 400 335" fill="none" xmlns="http://www.w3.org/2000/svg">
<path d="M4.99975 0C2.23833 0 -0.000244141 2.23858 -0.000244141 5V304.231C-0.000244141 306.992 2.23833 309.231 4.99976 309.231H8.33309C11.0945 309.231 13.3331 311.469 13.3331 314.231V330C13.3331 332.761 15.5717 335 18.3331 335H74.9998C77.7612 335 79.9998 332.761 79.9998 330V314.231C79.9998 311.469 82.2383 309.231 84.9998 309.231H315C317.761 309.231 320 311.469 320 314.231V330C320 332.761 322.238 335 325 335H381.666C384.428 335 386.666 332.761 386.666 330V314.231C386.666 311.469 388.905 309.231 391.666 309.231H395C397.761 309.231 400 306.992 400 304.231V257.692V219.038V90.1923V51.5385V5C400 2.23858 397.761 0 395 0H4.99975ZM66.6664 317.115C66.6664 319.877 64.4278 322.115 61.6664 322.115H31.6664C28.905 322.115 26.6664 319.877 26.6664 317.115V314.231C26.6664 311.469 28.905 309.231 31.6664 309.231H61.6664C64.4278 309.231 66.6664 311.469 66.6664 314.231V317.115ZM373.333 317.115C373.333 319.877 371.095 322.115 368.333 322.115H338.333C335.572 322.115 333.333 319.877 333.333 317.115V314.231C333.333 311.469 335.572 309.231 338.333 309.231H368.333C371.095 309.231 373.333 311.469 373.333 314.231V317.115ZM360 46.5385C360 49.2999 357.761 51.5385 355 51.5385H338.333C335.572 51.5385 333.333 53.777 333.333 56.5385V85.1923C333.333 87.9537 335.572 90.1923 338.333 90.1923H355C357.761 90.1923 360 92.4309 360 95.1923V214.038C360 216.8 357.761 219.038 355 219.038H338.333C335.572 219.038 333.333 221.277 333.333 224.038V252.692C333.333 255.454 335.572 257.692 338.333 257.692H354.967C357.733 257.692 359.974 259.939 359.967 262.705L359.959 265.589C359.952 268.346 357.715 270.577 354.959 270.576L45.0001 270.526C42.2385 270.526 40.0003 268.287 40.0009 265.525L40.0519 43.6535C40.0526 40.8922 42.2915 38.6542 45.0527 38.6547L355.001 38.7046C357.762 38.705 360 40.9435 360 43.7046V46.5385ZM373.333 64.4231H381.666C384.428 64.4231 386.666 66.6617 386.666 69.4231V72.3077C386.666 75.0691 384.428 77.3077 381.666 77.3077H373.333H351.666C348.905 77.3077 346.666 75.0691 346.666 72.3077V69.4231C346.666 66.6617 348.905 64.4231 351.666 64.4231H373.333ZM351.666 244.808C348.905 244.808 346.666 242.569 346.666 239.808V236.923C346.666 234.162 348.905 231.923 351.666 231.923H373.333H381.666C384.428 231.923 386.666 234.162 386.666 236.923V239.808C386.666 242.569 384.428 244.808 381.666 244.808H373.333H351.666ZM386.666 214.038C386.666 216.8 384.428 219.038 381.666 219.038H378.333C375.572 219.038 373.333 216.8 373.333 214.038V95.1923C373.333 92.4309 375.572 90.1923 378.333 90.1923H381.666C384.428 90.1923 386.666 92.4309 386.666 95.1923V214.038ZM378.333 51.5385C375.572 51.5385 373.333 49.2999 373.333 46.5385V38.7054C373.333 31.5673 367.333 25.7692 359.946 25.7692H40.0531C32.6731 25.7692 26.6664 31.5673 26.6664 38.7054V270.525C26.6664 277.663 32.6731 283.462 40.0531 283.462H359.946C367.333 283.462 373.333 277.663 373.333 270.525V262.692C373.333 259.931 375.572 257.692 378.333 257.692H381.666C384.428 257.692 386.666 259.931 386.666 262.692V291.346C386.666 294.108 384.428 296.346 381.666 296.346H320H79.9998H18.3331C15.5717 296.346 13.3331 294.108 13.3331 291.346V17.8846C13.3331 15.1232 15.5717 12.8846 18.3331 12.8846H381.666C384.428 12.8846 386.666 15.1232 386.666 17.8846V46.5385C386.666 49.2999 384.428 51.5385 381.666 51.5385H378.333Z" fill="#950740"/>
<path d="M133.333 161.058C137.015 161.058 140 158.173 140 154.615C140 151.057 137.015 148.173 133.333 148.173C129.651 148.173 126.666 151.057 126.666 154.615C126.666 158.173 129.651 161.058 133.333 161.058Z" fill="#950740"/>
<path d="M60.0002 161.058H87.2002C88.3335 168.679 91.4402 175.675 96.0135 181.57L76.7668 200.169C74.1602 202.688 74.1602 206.759 76.7668 209.278C78.0668 210.535 79.7735 211.166 81.4802 211.166C83.1868 211.166 84.8935 210.535 86.1935 209.278L105.44 190.679C111.54 195.099 118.78 198.101 126.673 199.196V225.481C126.673 229.043 129.66 231.923 133.34 231.923C137.02 231.923 140.007 229.043 140.007 225.481V199.196C147.893 198.101 155.133 195.099 161.24 190.679L180.487 209.278C181.787 210.535 183.493 211.166 185.2 211.166C186.907 211.166 188.613 210.535 189.913 209.278C192.52 206.759 192.52 202.688 189.913 200.169L170.667 181.57C175.24 175.669 178.34 168.679 179.48 161.058H206.667C210.347 161.058 213.333 158.178 213.333 154.615C213.333 151.053 210.347 148.173 206.667 148.173H179.467C178.333 140.552 175.227 133.555 170.653 127.661L189.9 109.062C192.507 106.543 192.507 102.471 189.9 99.9524C187.294 97.4334 183.08 97.4334 180.473 99.9524L161.227 118.551C155.127 114.132 147.887 111.13 140 110.035V83.75C140 80.1874 137.013 77.3077 133.333 77.3077C129.653 77.3077 126.667 80.1874 126.667 83.75V110.035C118.78 111.13 111.54 114.132 105.433 118.551L86.1868 99.9524C83.5802 97.4334 79.3668 97.4334 76.7602 99.9524C74.1535 102.471 74.1535 106.543 76.7602 109.062L96.0068 127.661C91.4402 133.555 88.3335 140.552 87.2002 148.173H60.0002C56.3202 148.173 53.3335 151.053 53.3335 154.615C53.3335 158.178 56.3202 161.058 60.0002 161.058ZM133.333 122.404C151.713 122.404 166.667 136.854 166.667 154.615C166.667 172.377 151.713 186.827 133.333 186.827C114.953 186.827 100 172.377 100 154.615C100 136.854 114.953 122.404 133.333 122.404Z" fill="#950740"/>
<path d="M246.666 154.615C242.986 154.615 240 157.495 240 161.058V167.5C240 171.063 242.986 173.942 246.666 173.942C250.346 173.942 253.333 171.063 253.333 167.5V161.058C253.333 157.495 250.346 154.615 246.666 154.615Z" fill="#950740"/>
<path d="M280 154.615C276.32 154.615 273.333 157.495 273.333 161.058V167.5C273.333 171.063 276.32 173.942 280 173.942C283.68 173.942 286.667 171.063 286.667 167.5V161.058C286.667 157.495 283.68 154.615 280 154.615Z" fill="#950740"/>
<path d="M313.333 154.615C309.653 154.615 306.666 157.495 306.666 161.058V167.5C306.666 171.063 309.653 173.942 313.333 173.942C317.02 173.942 320 171.063 320 167.5V161.058C320 157.495 317.02 154.615 313.333 154.615Z" fill="#950740"/>
<path d="M246.666 180.385C242.986 180.385 240 183.264 240 186.827V193.269C240 196.832 242.986 199.712 246.666 199.712C250.346 199.712 253.333 196.832 253.333 193.269V186.827C253.333 183.264 250.346 180.385 246.666 180.385Z" fill="#950740"/>
<path d="M280 180.385C276.32 180.385 273.333 183.264 273.333 186.827V193.269C273.333 196.832 276.32 199.712 280 199.712C283.68 199.712 286.667 196.832 286.667 193.269V186.827C286.667 183.264 283.68 180.385 280 180.385Z" fill="#950740"/>
<path d="M313.333 180.385C309.653 180.385 306.666 183.264 306.666 186.827V193.269C306.666 196.832 309.653 199.712 313.333 199.712C317.02 199.712 320 196.832 320 193.269V186.827C320 183.264 317.02 180.385 313.333 180.385Z" fill="#950740"/>
<path d="M246.666 206.154C242.986 206.154 240 209.034 240 212.596V219.038C240 222.601 242.986 225.481 246.666 225.481C250.346 225.481 253.333 222.601 253.333 219.038V212.596C253.333 209.034 250.346 206.154 246.666 206.154Z" fill="#950740"/>
<path d="M280 206.154C276.32 206.154 273.333 209.034 273.333 212.596V219.038C273.333 222.601 276.32 225.481 280 225.481C283.68 225.481 286.667 222.601 286.667 219.038V212.596C286.667 209.034 283.68 206.154 280 206.154Z" fill="#950740"/>
<path d="M313.333 206.154C309.653 206.154 306.666 209.034 306.666 212.596V219.038C306.666 222.601 309.653 225.481 313.333 225.481C317.02 225.481 320 222.601 320 219.038V212.596C320 209.034 317.02 206.154 313.333 206.154Z" fill="#950740"/>
<path d="M326.666 100.635C326.666 98.4255 324.875 96.6346 322.666 96.6346H237.333C235.124 96.6346 233.333 98.4255 233.333 100.635V131.288C233.333 133.498 235.124 135.288 237.333 135.288H322.666C324.875 135.288 326.666 133.498 326.666 131.288V100.635ZM313.333 118.404C313.333 120.613 311.542 122.404 309.333 122.404H250.666C248.457 122.404 246.666 120.613 246.666 118.404V113.519C246.666 111.31 248.457 109.519 250.666 109.519H309.333C311.542 109.519 313.333 111.31 313.333 113.519V118.404Z" fill="#950740"/>
</svg>
