<svg width="40" height="40" viewBox="0 0 40 40" fill="none" xmlns="http://www.w3.org/2000/svg">
<path d="M30.3333 12H15.3333C13.4924 12 12 13.4924 12 15.3333V30.3333C12 32.1743 13.4924 33.6667 15.3333 33.6667H30.3333C32.1743 33.6667 33.6667 32.1743 33.6667 30.3333V15.3333C33.6667 13.4924 32.1743 12 30.3333 12Z" stroke="#696969" stroke-width="2" stroke-linecap="round" stroke-linejoin="round"/>
<path d="M8.33331 25H6.66665C5.78259 25 4.93474 24.6488 4.30962 24.0237C3.6845 23.3986 3.33331 22.5507 3.33331 21.6667V6.66666C3.33331 5.78261 3.6845 4.93476 4.30962 4.30964C4.93474 3.68452 5.78259 3.33333 6.66665 3.33333H21.6666C22.5507 3.33333 23.3985 3.68452 24.0237 4.30964C24.6488 4.93476 25 5.78261 25 6.66666V8.33333" stroke="#696969" stroke-width="2" stroke-linecap="round" stroke-linejoin="round"/>
</svg>
