<svg width="201" height="195" viewBox="0 0 201 195" fill="none" xmlns="http://www.w3.org/2000/svg">
<path d="M2.64006 2.52069C1.26926 8.77198 0.913867 13.7125 1.16772 20.5183C1.52311 28.9878 2.69083 34.3821 5.58474 40.2805C8.17403 45.5739 10.9664 49.1029 15.028 51.9765C18.582 54.5476 18.5312 55.1021 14.8757 53.8922C11.1695 52.6319 7.86941 50.2624 3.80778 45.8764L0 41.7929L0.304622 45.2715C1.21849 56.4129 4.16317 65.1848 9.64638 73.251C13.708 79.1998 21.4759 85.0478 27.8729 86.9131C29.9038 87.5181 29.9545 87.5685 28.8884 88.0222C28.2283 88.2743 25.9437 88.476 23.7605 88.476C18.9881 88.476 16.2973 87.4173 12.1341 83.7875C10.5095 82.3759 9.13867 81.3676 9.13867 81.5693C9.13867 82.9304 11.5757 89.6859 13.048 92.4586C17.6173 101.18 26.2991 107.885 36.8085 110.708C40.9717 111.868 49.095 112.624 53.4612 112.322L57.1167 112.07L54.832 113.179C52.7504 114.237 51.8873 114.338 44.5256 114.288C35.3362 114.288 35.5393 113.884 42.3425 118.472C52.6997 125.429 66.3061 126.538 75.4956 121.144C76.4602 120.589 77.3233 120.136 77.4249 120.136C78.0849 120.136 74.6833 130.37 72.5509 134.655C70.5709 138.688 69.3016 140.604 66.8138 143.024C62.9045 146.905 59.5029 148.619 53.2581 149.829C47.9273 150.888 47.7749 150.535 54.832 153.207C58.2844 154.467 59.2491 154.619 65.24 154.619C73.8709 154.669 76.4094 153.762 81.3342 148.872C84.5835 145.645 84.7358 145.595 84.4312 147.057C83.8219 150.737 83.0604 152.905 81.2326 156.736C78.7957 161.727 73.3125 167.777 67.6769 171.658C65.6461 173.12 64.123 174.431 64.3261 174.633C64.5799 174.835 66.4077 175.238 68.4385 175.54C75.7494 176.649 83.8219 174.078 88.442 169.138L90.7267 166.718L91.3359 172.163C92.0975 179.12 93.8745 185.27 96.6161 190.715C98.7484 194.849 98.85 195 100.576 195C102.252 195 102.353 194.849 104.638 190.362C107.329 185.069 108.953 179.221 109.766 171.86L110.324 166.718L112.609 169.138C117.229 174.078 125.301 176.649 132.612 175.54C134.643 175.238 136.471 174.835 136.725 174.633C136.928 174.431 135.405 173.12 133.374 171.709C124.489 165.558 118.193 156.534 116.873 148.115L116.467 145.544L119.767 148.872C124.54 153.711 127.18 154.669 135.557 154.669C142.005 154.669 144.442 154.165 150.788 151.493L152.565 150.737L147.894 149.829C142.716 148.872 139.872 147.712 136.775 145.443C131.952 141.965 126.977 133.445 124.692 124.774C123.981 122.253 123.524 120.136 123.575 120.136C123.677 120.136 124.743 120.69 125.961 121.346C130.48 123.766 133.374 124.421 139.619 124.37C147.843 124.32 153.174 122.455 160.942 116.96C162.465 115.851 163.887 114.792 164.141 114.59C164.344 114.439 160.891 114.288 156.525 114.288C149.214 114.338 148.3 114.237 146.219 113.229L143.934 112.07L147.437 112.322C152.413 112.725 160.841 111.717 165.664 110.255C177.899 106.474 186.581 98.3066 190.389 86.9131C191.252 84.4429 191.912 82.1743 191.912 81.8718C191.912 81.5189 190.491 82.4767 188.764 83.8883C184.347 87.5685 182.012 88.476 177.29 88.476C175.107 88.476 172.822 88.2743 172.162 88.0222C171.096 87.5685 171.147 87.5181 173.178 86.9131C180.438 84.7958 189.17 77.5866 193.435 70.2262C197.395 63.4708 199.985 54.598 200.746 45.3723L201 41.8937L196.329 46.683C191.557 51.5227 188.054 53.7409 184.297 54.3459C182.723 54.598 182.621 54.5476 183.484 53.993C186.429 52.0269 189.881 48.9517 191.557 46.7334C194.298 43.3053 197.294 36.9028 198.563 31.8614C200.492 24.1481 200.442 11.7968 198.461 2.72234L197.903 6.88562e-06L195.568 3.98268C192.521 9.27612 187.901 15.0737 182.723 20.2663C170.842 32.0631 158.048 39.8772 141.396 45.5235C137.232 46.9855 132.968 48.5483 131.901 49.1029C130.886 49.607 129.769 50.0608 129.515 50.0608C129.211 50.0608 128.297 48.75 127.484 47.0864C124.286 40.8351 116.924 34.735 109.613 32.416C106.567 31.4077 104.79 31.1556 100.272 31.1556C93.8237 31.1556 91.3359 31.7606 85.5481 34.5838C80.6234 37.0036 75.1402 42.1962 72.5509 46.8847L70.8247 49.9599L69.0477 49.0525C68.0323 48.5483 63.8184 46.9855 59.6552 45.5235C36.047 37.4573 16.8558 22.8374 5.63551 4.28516L3.14776 0.151234L2.64006 2.52069ZM11.1187 18.5018C16.3481 24.6523 23.9129 31.2061 31.9854 36.5499C40.2102 41.9946 47.6734 45.6748 56.8121 48.75C60.5183 50.0103 64.9353 51.674 66.56 52.3798L69.5554 53.741L69.1493 55.8079C68.4385 59.7402 68.7939 67.7559 69.7585 70.7303C71.6878 76.3767 74.1248 80.4602 77.8818 84.1404C83.8219 89.9884 90.0159 92.7611 98.2407 93.2653C107.43 93.7694 115.249 90.8454 121.9 84.342C128.5 77.8387 131.191 71.5874 131.241 62.6642C131.241 59.7402 131.089 56.6145 130.886 55.7071C130.48 54.0434 130.531 53.993 133.323 52.7831C134.846 52.1277 139.619 50.3632 143.833 48.9517C163.938 42.0954 179.676 31.0548 194.349 13.5109L196.025 11.4943L195.771 19.5605C195.517 28.9374 194.857 32.1639 191.658 38.7681C187.749 46.8343 181.809 51.4723 172.569 53.741L167.796 54.9509L170.893 56.5137C177.849 60.0427 186.581 59.3873 193.181 54.9509C194.298 54.1947 195.263 53.7914 195.364 54.0434C195.669 55.0013 192.318 64.0757 190.237 67.7055C187.089 73.3014 181.555 78.5949 176.173 81.2668C171.655 83.485 166.476 84.7958 162.211 84.8462C160.841 84.8966 158.759 85.0478 157.693 85.2495L155.662 85.6024L161.247 88.2239C168.761 91.7528 172.112 92.5595 178.559 92.3074C183.535 92.1562 183.687 92.1562 183.18 93.114C182.875 93.6686 180.895 95.8363 178.763 98.0041C174.295 102.39 169.015 105.314 162.211 107.079C156.881 108.49 146.473 108.591 139.923 107.331C137.486 106.877 135.303 106.574 135.202 106.726C134.542 107.331 137.791 112.624 139.669 114.137C141.802 115.8 146.828 118.069 148.402 118.119C150.128 118.119 149.214 119.027 146.879 119.632C137.232 122.051 129.008 119.934 121.798 113.229L118.346 109.952L118.6 112.675C120.275 130.37 126.164 143.024 136.065 150.031C137.334 150.888 137.283 150.938 133.425 150.737C128.652 150.485 124.743 148.771 122.052 145.695C119.463 142.671 118.397 140.402 116.975 134.604C116.264 131.781 115.604 129.412 115.503 129.311C115.147 128.958 112.761 137.68 112.456 140.553C111.441 149.476 115.807 160.719 123.321 168.583L126.266 171.658L124.438 171.306C122.052 170.852 117.229 168.281 115.604 166.617C113.421 164.348 110.832 159.61 109.918 156.181C109.004 152.955 109.004 152.955 107.43 153.257C105.247 153.661 105.095 153.862 105.602 156.434C106.719 162.13 105.806 174.935 103.775 181.64C102.709 185.27 100.982 189.202 100.525 189.202C100.068 189.202 98.3423 185.27 97.2761 181.64C95.2453 174.935 94.3314 162.13 95.4483 156.434C95.9561 153.862 95.8037 153.661 93.6206 153.257C92.0467 152.955 92.0467 153.005 91.1836 155.98C88.899 164.248 83.365 170.045 76.5618 171.306L74.7848 171.658L77.7802 168.432C79.4557 166.668 81.6896 163.895 82.8065 162.231C86.8681 156.081 89.3051 146.905 88.5943 140.553C88.2897 137.68 85.9035 128.958 85.5481 129.311C85.4466 129.412 84.7866 131.781 84.0758 134.604C83.365 137.428 82.3496 140.654 81.7403 141.814C78.8972 147.309 74.0232 150.384 67.6262 150.737L63.7168 150.938L65.24 149.829C68.7939 147.208 73.414 141.864 75.4956 137.982C79.2018 131.025 81.7403 121.9 82.4004 113.179L82.6542 110.053L79.1003 113.33C71.7893 120.035 63.6153 122.102 54.2228 119.581C51.7858 118.926 50.9735 118.119 52.6997 118.119C54.2228 118.069 59.2491 115.8 61.3814 114.137C63.2599 112.624 66.5092 107.331 65.8492 106.726C65.7477 106.574 63.5645 106.877 61.1276 107.331C54.6289 108.591 44.221 108.49 38.8394 107.079C30.7161 104.961 22.6944 99.819 18.8358 94.2231L17.3635 92.1562L22.5421 92.3074C28.9391 92.5595 32.29 91.7528 39.804 88.2239L45.3887 85.6024L43.3579 85.2495C42.2917 85.0478 40.2609 84.8966 38.8394 84.8462C34.5746 84.7958 29.3961 83.485 24.8775 81.2668C19.4958 78.5949 13.9619 73.3014 10.8141 67.7055C8.73251 64.0757 5.38166 55.0013 5.68628 54.0434C5.78783 53.7914 6.75246 54.1947 7.86941 54.9509C14.4696 59.3873 23.1513 60.0427 30.1576 56.5137L33.2546 54.9509L28.8376 53.8418C19.5466 51.5228 13.708 47.1368 9.74792 39.6251C6.49861 33.4747 5.53397 28.9878 5.22935 19.5605L5.02627 11.4943L6.19399 12.8051C6.854 13.5109 9.03713 16.082 11.1187 18.5018ZM106.364 35.6929C111.136 36.9028 115.706 39.4235 119.057 42.7508C121.849 45.4227 125.403 50.6153 125.403 51.9261C125.403 52.1781 123.88 53.4385 122.001 54.7492C117.787 57.5724 111.339 63.8741 108.395 67.9576C105.552 71.8899 102.861 77.0321 101.744 80.561C101.236 82.0734 100.678 83.3338 100.525 83.3338C100.322 83.3338 99.8654 82.3759 99.51 81.166C98.7484 78.5445 95.296 71.6882 93.3668 68.9155C89.6605 63.5212 83.6696 57.7236 77.9833 53.993C76.3079 52.9343 74.8356 51.9765 74.734 51.8252C74.2263 51.3211 78.1864 45.5235 80.928 42.7508C87.4774 36.2978 97.5807 33.4747 106.364 35.6929ZM76.6125 57.9253C83.4158 62.4625 90.7267 70.9824 93.976 78.1412C95.4991 81.418 97.6822 88.8289 97.2761 89.2322C97.1745 89.3834 95.6007 89.0809 93.8237 88.6776C83.5681 86.1065 76.0033 78.6453 73.3632 68.4617C72.297 64.3278 72.4494 56.1104 73.5663 56.1104C73.7186 56.1104 75.0894 56.917 76.6125 57.9253ZM127.129 57.7236C127.688 59.841 127.434 65.4369 126.672 68.4617C124.946 75.2172 120.884 81.0147 115.401 84.6445C112.304 86.7115 106.872 88.8793 104.841 88.8793H103.673L104.384 85.804C106.059 78.6453 110.172 71.3857 116.061 65.2353C119.107 62.0088 125.606 56.6145 126.469 56.6145C126.672 56.6145 126.926 57.1187 127.129 57.7236Z" fill="#696969"/>
</svg>
